<svg xmlns="http://www.w3.org/2000/svg" width="32.279" height="28.244" viewBox="0 0 32.279 28.244"><path id="visionIcon" d="M26.226,33.009A1.008,1.008,0,0,0,25.218,32H21.183a1.008,1.008,0,0,0-1.009,1.009v3.026h6.052Zm-22.2,7.06C3.871,45.986.218,47.271,0,55.453v2.774a2.018,2.018,0,0,0,2.017,2.017H8.07a2.018,2.018,0,0,0,2.017-2.017V48.139H12.1V38.052H6.042A2.037,2.037,0,0,0,4.029,40.069Zm24.22,0a2.037,2.037,0,0,0-2.013-2.017H20.174V48.139h2.017V58.226a2.018,2.018,0,0,0,2.017,2.017h6.052a2.018,2.018,0,0,0,2.017-2.017V55.453C32.061,47.271,28.408,45.986,28.25,40.069ZM11.1,32H7.061a1.008,1.008,0,0,0-1.009,1.009v3.026H12.1V33.009A1.008,1.008,0,0,0,11.1,32Zm3.026,16.139h4.035V38.052H14.122Z" transform="translate(0 -32)" fill="#00a85b"></path></svg>