<svg xmlns="http://www.w3.org/2000/svg" width="34.861" height="28.122" viewBox="0 0 34.861 28.122"><path id="missionIcon" d="M13.482,28.122c-.035-.041-.083-.03-.127-.03a8.863,8.863,0,0,1-1.346-.113,14.939,14.939,0,0,1-2.761-.7,13.984,13.984,0,0,1-6.086-4.321A13.737,13.737,0,0,1,1.6,20.608,13.6,13.6,0,0,1,.526,17.891a13.779,13.779,0,0,1-.473-2.586A1.543,1.543,0,0,0,0,14.777q0-.716,0-1.43a1.541,1.541,0,0,0,.052-.528,13.77,13.77,0,0,1,.472-2.585A13.555,13.555,0,0,1,1.6,7.517,13.744,13.744,0,0,1,3.161,5.163,14.033,14.033,0,0,1,6.429,2.239,14.182,14.182,0,0,1,9.246.843,14.826,14.826,0,0,1,12.207.116c.373-.055.752-.067,1.13-.089A9.45,9.45,0,0,1,14.32.005a16.258,16.258,0,0,1,2.2.218,14.315,14.315,0,0,1,2.8.806,13.775,13.775,0,0,1,3.423,2,13.489,13.489,0,0,1,1.491,1.356,15.252,15.252,0,0,1,1.316,1.61c.063.089.05.133-.038.184-.706.405-1.409.81-2.111,1.222-.114.068-.156-.01-.2-.074a10.372,10.372,0,0,0-1.265-1.456,11.9,11.9,0,0,0-2.4-1.772A11.393,11.393,0,0,0,16.719,3a10.384,10.384,0,0,0-1.73-.276,10.011,10.011,0,0,0-1.148-.055,11.849,11.849,0,0,0-4.267.928A11.39,11.39,0,0,0,2.81,12.231a10.34,10.34,0,0,0-.145,2.261,11.784,11.784,0,0,0,.92,4.046,11.189,11.189,0,0,0,1.546,2.6,11.4,11.4,0,0,0,6.278,4,10.755,10.755,0,0,0,1.665.263,9.457,9.457,0,0,0,1.116.056,12.252,12.252,0,0,0,3.35-.563,11.58,11.58,0,0,0,3.019-1.5,12.636,12.636,0,0,0,1.133-.911,11.393,11.393,0,0,0,3.032-4.507,11.751,11.751,0,0,0,.517-1.921c.064-.355.09-.714.136-1.069.038-.3.023-.6.041-.9a7.95,7.95,0,0,0-.052-1.112,11,11,0,0,0-.332-1.839,11.227,11.227,0,0,0-.523-1.517c-.044-.105-.031-.157.072-.214q1.045-.6,2.081-1.2c.1-.057.131-.04.176.061a13.632,13.632,0,0,1,.976,3.035,14.857,14.857,0,0,1,.261,2.329,15.2,15.2,0,0,1-.039,1.659,12.94,12.94,0,0,1-.431,2.453,13.928,13.928,0,0,1-1.161,2.939A13.534,13.534,0,0,1,24.8,23.095a14.5,14.5,0,0,1-1.049,1.13,14.431,14.431,0,0,1-2.369,1.824,13.957,13.957,0,0,1-5.635,1.966c-.236.029-.47.071-.7.107Zm.342-5.524a8.939,8.939,0,0,1-2.374-.4A8.3,8.3,0,0,1,8.881,20.86a8.58,8.58,0,0,1-3.294-5.639,5.418,5.418,0,0,1-.066-1.034A8.527,8.527,0,0,1,12.28,5.709a8.024,8.024,0,0,1,2.188-.179,8.569,8.569,0,0,1,4.991,1.935,8.263,8.263,0,0,1,1.265,1.292c.081.1.078.151-.047.222q-1.18.666-2.346,1.353c-.1.058-.141.055-.221-.031a5.488,5.488,0,0,0-3.286-1.735,5.3,5.3,0,0,0-3.055.442,5.514,5.514,0,0,0-3.041,3.471,5.21,5.21,0,0,0-.216,1.976,5.566,5.566,0,0,0,4.879,5.115,5.35,5.35,0,0,0,4.031-1.119,5.429,5.429,0,0,0,2.088-3.506,5.315,5.315,0,0,0-.139-2.39c-.023-.08-.026-.12.063-.171q1.212-.691,2.416-1.4c.092-.053.126-.047.167.061a8.861,8.861,0,0,1,.55,3.346A8.577,8.577,0,0,1,20.5,19.641a8.383,8.383,0,0,1-1.836,1.591,8.291,8.291,0,0,1-2.894,1.191A8.393,8.393,0,0,1,14.1,22.6Q13.96,22.6,13.824,22.6ZM13.9,16.81a2.782,2.782,0,0,1-2.675-2.437,2.826,2.826,0,0,1,.233-1.549,2.69,2.69,0,0,1,1.49-1.406,2.271,2.271,0,0,1,1-.187,2.683,2.683,0,0,1,1.634.479c.173.115.167.121-.006.22-.595.344-1.2.674-1.778,1.046a1.125,1.125,0,0,0-.309,1.619,1.164,1.164,0,0,0,1.591.315c.513-.307,1.035-.6,1.55-.9.134-.08.16-.043.154.1a2.752,2.752,0,0,1-.775,1.843A2.69,2.69,0,0,1,14,16.812Zm-.011-2.488a.62.62,0,0,1,.15-.9c.445-.275.9-.531,1.358-.793q1.642-.949,3.283-1.9c.869-.5,1.736-1.011,2.606-1.513C22.347,8.6,23.411,8,24.471,7.385c1.231-.712,2.461-1.428,3.693-2.138a.318.318,0,0,0,.158-.222c.111-.412.228-.824.331-1.239a.238.238,0,0,1,.131-.161l2.773-1.6,1.59-.919c-.062.376-.116.722-.176,1.067-.07.4-.145.8-.217,1.193-.018.1-.009.166.112.2.665.169,1.329.347,1.993.521v.034c-.4.226-.8.449-1.191.677q-1.211.7-2.417,1.4a3.1,3.1,0,0,0-.437.257.864.864,0,0,1-.914.109c-.275-.1-.564-.156-.843-.242a.33.33,0,0,0-.284.049L24.991,8.554Q22.793,9.827,20.6,11.1c-.947.547-1.9,1.089-2.846,1.636-.976.564-1.954,1.129-2.926,1.7a.883.883,0,0,1-.444.133A.6.6,0,0,1,13.889,14.322Z" transform="translate(0 0)" fill="#00a85b"></path></svg>