<svg xmlns="http://www.w3.org/2000/svg" width="20.973" height="20.973" viewBox="0 0 20.973 20.973"><g id="PhoneIcon" transform="translate(-3 -2)"><path id="Path_1" data-name="Path 1" d="M20.728,11.933h2.208A9.721,9.721,0,0,0,12.99,2V4.208A7.478,7.478,0,0,1,20.728,11.933Z" transform="translate(1.037 0)" fill="#fff"></path><path id="Path_2" data-name="Path 2" d="M14.038,8.5c2.321,0,3.311.99,3.311,3.311h2.208c0-3.56-1.959-5.519-5.519-5.519Zm3.777,6.008a1.1,1.1,0,0,0-1.535.047l-2.641,2.717a6.337,6.337,0,0,1-3.23-1.832,6.306,6.306,0,0,1-1.832-3.23l2.714-2.643a1.1,1.1,0,0,0,.047-1.535L7.26,3.547a1.1,1.1,0,0,0-1.535-.1l-2.4,2.054a1.1,1.1,0,0,0-.32.716A16.671,16.671,0,0,0,7.745,18.105,16.715,16.715,0,0,0,19.232,22.85c.223,0,.36-.007.4-.009a1.1,1.1,0,0,0,.715-.321l2.053-2.4a1.1,1.1,0,0,0-.095-1.535Z" transform="translate(0 0.123)" fill="#fff"></path></g></svg>