<svg xmlns="http://www.w3.org/2000/svg" width="24" height="24" viewBox="0 0 24 24"><path id="whatsappIcon" d="M44.218,32A11.737,11.737,0,0,0,32.436,43.691a11.57,11.57,0,0,0,1.691,6.037L32,56l6.523-2.072A11.72,11.72,0,1,0,44.218,32Zm5.859,16.131a3.043,3.043,0,0,1-2.084,1.343c-.553.029-.568.428-3.581-.88a12.293,12.293,0,0,1-4.967-4.7,5.778,5.778,0,0,1-1.112-3.132,3.338,3.338,0,0,1,1.147-2.45,1.154,1.154,0,0,1,.816-.344c.237,0,.391-.007.566,0s.439-.037.667.57.774,2.1.844,2.249a.546.546,0,0,1,.005.523,2.046,2.046,0,0,1-.319.487c-.157.169-.331.377-.471.506-.156.143-.32.3-.155.6a9.016,9.016,0,0,0,1.6,2.129A8.22,8.22,0,0,0,45.39,46.61c.3.161.472.143.655-.05s.784-.844,1-1.134.41-.234.683-.125,1.723.887,2.018,1.047.492.243.563.37a2.474,2.474,0,0,1-.229,1.412Z" transform="translate(-32 -32)" fill="#fff"></path></svg>