<svg xmlns="http://www.w3.org/2000/svg" width="28.244" height="28.244" viewBox="0 0 28.244 28.244"><path id="Path_8" data-name="Path 8" d="M9.138,24.829H6v6.276a3.137,3.137,0,0,0,3.138,3.138h6.276V31.106H9.138Zm0-15.691h6.276V6H9.138A3.137,3.137,0,0,0,6,9.138v6.276H9.138ZM31.106,6H24.829V9.138h6.276v6.276h3.138V9.138A3.137,3.137,0,0,0,31.106,6Zm0,25.106H24.829v3.138h6.276a3.137,3.137,0,0,0,3.138-3.138V24.829H31.106ZM20.122,15.415a4.707,4.707,0,1,0,4.707,4.707A4.711,4.711,0,0,0,20.122,15.415Z" transform="translate(-6 -6)" fill="#00a85b"></path></svg>